<svg xmlns="http://www.w3.org/2000/svg" width="720" height="420">
<rect width="100%" height="100%" fill="white"/>
<text x="360" y="30" text-anchor="middle" font-family="Arial" font-size="20">Entrenamiento de sentimiento</text>
<polyline points="55.0,225.9 142.1,140.0 229.3,86.7 316.4,95.6 403.6,86.7 490.7,80.8 577.9,80.8 665.0,80.8" fill="none" stroke="#1f77b4" stroke-width="3"/>
<text x="55" y="405" font-family="Arial" fill="#1f77b4">accuracy</text>
<polyline points="55.0,55.0 142.1,61.7 229.3,73.0 316.4,89.5 403.6,113.3 490.7,149.5 577.9,195.6 665.0,249.7" fill="none" stroke="#d62728" stroke-width="3"/>
<text x="205" y="405" font-family="Arial" fill="#d62728">loss</text>
<polyline points="55.0,175.5 142.1,163.7 229.3,140.0 316.4,116.3 403.6,104.5 490.7,92.6 577.9,80.8 665.0,80.8" fill="none" stroke="#9ecae1" stroke-width="3"/>
<text x="355" y="405" font-family="Arial" fill="#9ecae1">val_accuracy</text>
<polyline points="55.0,57.1 142.1,63.8 229.3,75.3 316.4,95.0 403.6,125.7 490.7,168.8 577.9,221.7 665.0,277.1" fill="none" stroke="#ff9896" stroke-width="3"/>
<text x="505" y="405" font-family="Arial" fill="#ff9896">val_loss</text>
</svg>